<?xml version="1.0" encoding="UTF-8" standalone="no"?>
<svg width="48px" height="48px" viewBox="0 0 48 48" version="1.1" xmlns="http://www.w3.org/2000/svg" xmlns:xlink="http://www.w3.org/1999/xlink">
    <!-- Generator: Sketch 39.1 (31720) - http://www.bohemiancoding.com/sketch -->
    <title>Dialogue</title>
    <desc>Created with Sketch.</desc>
    <defs></defs>
    <g id="Page-1" stroke="none" stroke-width="1" fill="none" fill-rule="evenodd">
        <g id="Dialogue" fill="#FFFFFF">
            <path d="M24.0156,44.0157 C22.4402582,43.9946217 20.8702406,43.827912 19.3256,43.5177 C18.5961342,43.3930006 17.8481931,43.5867387 17.271,44.0499 C14.318712,46.2186408 10.8524063,47.5809343 7.2135,48.0026 C6.79121128,48.0469437 6.3815765,47.8421597 6.16363079,47.4777509 C5.94568508,47.113342 5.95905614,46.6555666 6.1979,46.3045 C7.60421091,44.5530152 8.61391938,42.5173583 9.1574,40.3379 C9.26714357,39.7428346 9.03458738,39.1364047 8.5551,38.7673 C3.24763931,34.8243649 0.0884443838,28.627097 0.0156,22.0157 C0.0156,9.8805 10.7608,0.0157 24.0156,0.0157 C37.2704,0.0157 48.0156,9.8804 48.0156,22.0157 C48.0156,34.151 37.27,44.0157 24.0156,44.0157 L24.0156,44.0157 Z M24.0096,36.0157 C25.6664542,36.0157 27.0096,34.6725542 27.0096,33.0157 C27.0096,31.3588458 25.6664542,30.0157 24.0096,30.0157 C22.3527458,30.0157 21.0096,31.3588458 21.0096,33.0157 C21.0096265,33.8114015 21.3257637,34.5744981 21.8884564,35.1370971 C22.4511492,35.6996961 23.2142986,36.0157061 24.01,36.0156 L24.0096,36.0157 Z M24.0156,8.0165 C21.8664673,7.92586716 19.7777568,8.74029318 18.2572246,10.2617948 C16.7366923,11.7832964 15.9235975,13.8725255 16.0156,16.0216 C16.0040332,16.555622 16.2109838,17.0712191 16.5885508,17.4490504 C16.9661178,17.8268817 17.48157,18.0341931 18.0156,18.023 C18.9865,18.023 19.6841,17.3776 20.0156,16.0216 C20.3596,14.6145 21.2285,13.0198 24.0156,13.0198 C24.8827211,12.930959 25.7482972,13.2019523 26.4099429,13.7694174 C27.0715885,14.3368826 27.4712934,15.1510665 27.5156,16.0216 C27.5156,19.5763 22.0156,20.0622 22.0156,25.0274 C22.0031418,25.5616727 22.209809,26.0777819 22.5875768,26.4557952 C22.9653445,26.8338085 23.4813193,27.040811 24.0156,27.0287 C25.2331754,27.0996311 26.3057874,26.2349047 26.4948,25.03 C27.4208,21.0914 32.0156,20.9 32.0156,16.0214 C32.1102347,13.8716038 31.2979848,11.7808303 29.7768527,10.2587474 C28.2557205,8.73666455 26.1654549,7.92310853 24.0156,8.0164 L24.0156,8.0165 Z" id="Shape"></path>
        </g>
    </g>
</svg>